<svg width="397" height="396" viewBox="0 0 397 396" fill="none" xmlns="http://www.w3.org/2000/svg">
<path opacity="0.07" d="M360.113 167.026C360.113 169.17 360.065 171.315 359.922 173.316C380.413 188.898 396.185 222.303 396.185 251.704C396.185 283.726 377.458 298.832 354.347 285.489C354.299 285.442 354.252 285.442 354.204 285.394L209.008 201.669C208.96 201.622 208.912 201.622 208.817 201.574C182.847 186.563 161.784 145.249 161.784 109.272C161.784 75.5816 180.273 58.4745 203.957 68.815C206.863 45.7037 222.35 35.7444 241.03 46.5614C249.989 51.7555 258.232 60.8571 264.665 71.8171C274.005 57.9503 289.921 54.424 307.934 64.8122C336.763 81.3952 360.113 127.189 360.113 167.026Z" fill="url(#paint0_linear_719_19)"/>
<path opacity="0.4" d="M336.287 189.899C336.287 192.043 336.239 194.188 336.096 196.189C356.586 211.772 372.359 245.176 372.359 274.577C372.359 306.599 353.632 321.705 330.521 308.362C330.473 308.315 330.425 308.315 330.378 308.267L185.182 224.542C185.134 224.495 185.086 224.495 184.991 224.447C159.021 209.437 137.958 168.122 137.958 132.145C137.958 98.4546 156.447 81.3475 180.13 91.688C183.037 68.5767 198.524 58.6174 217.204 69.4345C226.162 74.6286 234.406 83.7301 240.839 94.6901C250.179 80.8233 266.095 77.2971 284.107 87.6852C312.937 104.268 336.287 150.062 336.287 189.899Z" fill="url(#paint1_linear_719_19)"/>
<path opacity="0.2" d="M106.413 230.69L84.302 217.919V210.438L106.413 223.208C108.223 224.257 110.844 226.353 113.084 229.594C115.514 233.072 117.23 237.456 117.23 242.221C117.23 247.463 115.895 250.465 113.322 251.323C110.94 252.133 108.128 250.751 106.365 249.751L97.2634 244.509L97.2157 244.461C96.4533 243.985 95.2144 243.556 94.2137 243.842C93.4036 244.08 92.4982 244.89 92.4982 247.797C92.4982 250.704 93.4036 252.514 94.166 253.563C95.1191 254.897 96.358 255.85 97.1204 256.231L97.2157 256.279L124.997 272.338V279.819L97.3587 263.856C95.4526 262.855 92.7364 260.758 90.3538 257.423C87.7806 253.801 85.9698 249.179 86.0175 244.032C86.0175 238.933 87.7806 236.313 90.3538 235.598C92.7364 234.931 95.4526 235.884 97.3587 237.075L106.365 242.269C107.652 243.032 108.652 243.365 109.272 243.127C109.748 242.984 110.701 242.269 110.701 238.457C110.701 236.027 109.891 234.407 109.176 233.311C108.319 232.072 107.127 231.119 106.413 230.69Z" fill="#46C3DB"/>
<path fill-rule="evenodd" clip-rule="evenodd" d="M89.0671 216.06C89.0671 222.208 85.4456 225.114 81.0139 222.589C76.5823 220.016 72.9607 212.963 72.9607 206.768C72.9607 200.621 76.5823 197.714 81.0139 200.24C85.4456 202.813 89.0671 209.913 89.0671 216.06ZM136.243 282.297C136.243 288.444 132.621 291.351 128.19 288.825C123.758 286.252 120.136 279.2 120.136 273.005C120.136 266.858 123.758 263.951 128.19 266.476C132.621 269.05 136.243 276.15 136.243 282.297Z" fill="#10BC83"/>
<path opacity="0.07" d="M174.317 123.996L317.226 206.482V282.106L174.269 199.62L174.317 123.996Z" fill="url(#paint2_linear_719_19)"/>
<path opacity="0.3" d="M155.208 133.527L298.117 216.013V291.637L155.208 209.151V133.527Z" fill="url(#paint3_linear_719_19)"/>
<path fill-rule="evenodd" clip-rule="evenodd" d="M168.027 178.558C168.027 184.658 171.648 191.662 176.08 194.236C180.512 196.809 184.133 193.95 184.133 187.85C184.133 181.751 180.512 174.746 176.08 172.173C171.648 169.599 168.027 172.459 168.027 178.558Z" fill="#10BC83"/>
<path opacity="0.15" d="M188.184 190.328C188.184 193.14 189.852 196.428 191.948 197.619C193.997 198.81 195.665 197.476 195.665 194.665C195.665 191.853 193.997 188.565 191.901 187.374C189.852 186.183 188.184 187.517 188.184 190.328ZM199.668 196.952C199.668 199.763 201.336 203.051 203.433 204.243C205.482 205.434 207.149 204.1 207.149 201.288C207.149 198.477 205.482 195.189 203.385 193.997C201.336 192.806 199.668 194.14 199.668 196.952Z" fill="#46C3DB"/>
<path opacity="0.15" d="M262.045 209.818V252.848L256.422 249.608V206.578L262.045 209.818Z" fill="#46C3DB"/>
<path opacity="0.15" d="M274.339 216.965V259.995L268.716 256.755V213.725L274.339 216.965Z" fill="#46C3DB"/>
<path opacity="0.15" d="M286.681 224.113V267.143L281.058 263.903V220.873L286.681 224.113Z" fill="#46C3DB"/>
<path opacity="0.07" d="M174.269 227.354L317.178 309.84V385.464L174.269 302.978V227.354Z" fill="url(#paint4_linear_719_19)"/>
<path opacity="0.3" d="M155.208 237.361L298.117 319.847V395.471L155.208 312.985V237.361Z" fill="url(#paint5_linear_719_19)"/>
<path fill-rule="evenodd" clip-rule="evenodd" d="M168.027 282.392C168.027 288.491 171.648 295.496 176.08 298.07C180.512 300.643 184.133 297.784 184.133 291.684C184.133 285.585 180.512 278.58 176.08 276.007C171.648 273.433 168.027 276.293 168.027 282.392Z" fill="#10BC83"/>
<path opacity="0.15" d="M188.184 294.21C188.184 297.021 189.852 300.309 191.948 301.501C193.997 302.692 195.665 301.358 195.665 298.546C195.665 295.735 193.997 292.447 191.901 291.256C189.852 290.064 188.184 291.351 188.184 294.21ZM199.62 300.834C199.62 303.645 201.288 306.933 203.385 308.124C205.434 309.316 207.102 307.981 207.102 305.17C207.102 302.359 205.434 299.07 203.337 297.879C201.288 296.64 199.62 297.974 199.62 300.834Z" fill="#46C3DB"/>
<path opacity="0.15" d="M262.045 315.129V358.159L256.422 354.919V311.889L262.045 315.129Z" fill="#46C3DB"/>
<path opacity="0.15" d="M274.339 322.277V365.307L268.716 362.067V319.037L274.339 322.277Z" fill="#46C3DB"/>
<path opacity="0.15" d="M286.681 329.425V372.455L281.058 369.214V326.185L286.681 329.425Z" fill="#46C3DB"/>
<path opacity="0.3" d="M28.3108 21.4966L117.373 72.9133V237.933L28.3108 186.468V21.4966Z" fill="url(#paint6_linear_719_19)"/>
<path fill-rule="evenodd" clip-rule="evenodd" d="M83.3012 81.2523C83.3012 89.4961 78.536 93.4036 72.6748 89.9727C66.8136 86.5417 62.0484 77.1066 62.0484 68.8628C62.0484 60.6189 66.8136 56.7115 72.6748 60.1424C78.536 63.5734 83.3012 73.0085 83.3012 81.2523ZM72.6748 96.5963C63.192 91.0687 55.3771 96.2628 53.9951 108.176C53.7569 110.225 55.3294 112.989 57.2355 114.085L88.1617 132.145C90.0678 133.241 91.6404 132.383 91.4021 130C89.9725 116.42 82.1099 102.124 72.6748 96.5963Z" fill="#14DDA0"/>
<path opacity="0.15" d="M46.1802 128.523L99.2647 159.164V165.644L46.1802 135.004V128.523Z" fill="#46C3DB"/>
<path opacity="0.15" d="M51.5649 144.487L93.6418 168.742V175.222L51.5649 150.968V144.487Z" fill="#46C3DB"/>
<path fill-rule="evenodd" clip-rule="evenodd" d="M62.2867 171.744L0.338867 135.957V154.398L62.2867 190.185V171.744Z" fill="#14DDA0"/>
<path opacity="0.2" d="M136.577 0.577148L149.824 26.5952C151.635 30.1691 151.349 33.7431 149.157 34.6008C146.965 35.4585 143.724 33.2189 141.914 29.645L141.771 29.3114V58.1886C141.771 61.4766 139.483 62.8109 136.624 61.1907C133.765 59.5229 131.478 55.5678 131.478 52.2798V23.4025L131.335 23.5455C129.524 25.0227 126.236 23.4978 124.092 20.1145C121.9 16.7312 121.614 12.8238 123.425 11.3465L136.577 0.577148Z" fill="url(#paint7_linear_719_19)"/>
<path opacity="0.2" d="M136.576 384.749L123.329 358.731C121.518 355.157 121.804 351.583 123.996 350.725C126.188 349.868 129.429 352.107 131.239 355.681L131.382 356.015V327.137C131.382 323.849 133.67 322.515 136.529 324.135C139.388 325.803 141.675 329.758 141.675 333.046V361.924L141.818 361.781C143.629 360.303 146.917 361.828 149.061 365.212C151.253 368.595 151.539 372.502 149.728 373.98L136.576 384.749Z" fill="url(#paint8_linear_719_19)"/>
<defs>
<linearGradient id="paint0_linear_719_19" x1="21578.1" y1="3425.23" x2="7669.42" y2="16617.8" gradientUnits="userSpaceOnUse">
<stop stop-color="white"/>
<stop offset="1" stop-color="white" stop-opacity="0"/>
</linearGradient>
<linearGradient id="paint1_linear_719_19" x1="21554" y1="3448.35" x2="7645.37" y2="16640.9" gradientUnits="userSpaceOnUse">
<stop stop-color="white"/>
<stop offset="1" stop-color="white" stop-opacity="0"/>
</linearGradient>
<linearGradient id="paint2_linear_719_19" x1="7084.5" y1="728.608" x2="7616.83" y2="14101.6" gradientUnits="userSpaceOnUse">
<stop stop-color="white"/>
<stop offset="1" stop-color="white" stop-opacity="0"/>
</linearGradient>
<linearGradient id="paint3_linear_719_19" x1="7063.28" y1="738.297" x2="7595.61" y2="14111.3" gradientUnits="userSpaceOnUse">
<stop stop-color="white"/>
<stop offset="1" stop-color="white" stop-opacity="0"/>
</linearGradient>
<linearGradient id="paint4_linear_719_19" x1="7082.34" y1="833.706" x2="7614.67" y2="14206.6" gradientUnits="userSpaceOnUse">
<stop stop-color="white"/>
<stop offset="1" stop-color="white" stop-opacity="0"/>
</linearGradient>
<linearGradient id="paint5_linear_719_19" x1="7063.28" y1="843.712" x2="7595.61" y2="14216.6" gradientUnits="userSpaceOnUse">
<stop stop-color="white"/>
<stop offset="1" stop-color="white" stop-opacity="0"/>
</linearGradient>
<linearGradient id="paint6_linear_719_19" x1="5397.23" y1="1472.48" x2="-867.573" y2="12326.3" gradientUnits="userSpaceOnUse">
<stop stop-color="white"/>
<stop offset="1" stop-color="white" stop-opacity="0"/>
</linearGradient>
<linearGradient id="paint7_linear_719_19" x1="1767.8" y1="2625.53" x2="788.451" y2="3171.49" gradientUnits="userSpaceOnUse">
<stop stop-color="white"/>
<stop offset="1" stop-color="white" stop-opacity="0"/>
</linearGradient>
<linearGradient id="paint8_linear_719_19" x1="1353.64" y1="3830.17" x2="2332.96" y2="3284.27" gradientUnits="userSpaceOnUse">
<stop stop-color="white"/>
<stop offset="1" stop-color="white" stop-opacity="0"/>
</linearGradient>
</defs>
</svg>
